# xmcd
#
# Track frame offsets:
#	150
#	15207
#	29990
#	43880
#	59735
#	75070
#	88800
#	103395
#	117940
#	132062
#	147600
#	159020
#
# Disc length: 2329 seconds
#
# Revision: 0
# Processed by: cddbd v1.5.2PL0 Copyright (c) Steve Scherf et al.
# Submitted via: EasyCDDAExtractor 16.0.8.2
#
DISCID=9f09170c
DTITLE=Συλλογικός δίσκος - Από την Πόλη στον Πειραιά-Κ. Σκαρβέλης 2
DYEAR=2000
DGENRE=Ρεμπέτικη
TTITLE0=Ιακωβίδης Αγάθωνας - Πες το και δεν θα χάσεις [Κώστα Σκαρβέλη]
TTITLE1=Ιακωβίδης Αγάθωνας - Τσαγκαράκι [Κώστα Σκαρβέλη]
TTITLE2=Ιακωβίδης Αγάθωνας-Γκολές Μπάμπης - Τι μού 'κανες δεν το ξεχνώ [Κώστα 
TTITLE2=Σκαρβέλη]
TTITLE3=Ιακωβίδης Αγάθωνας - Σε γελάσανε [Κώστα Σκαρβέλη]
TTITLE4=Ιακωβίδης Αγάθωνας - Το παιχνίδι του Αμερικάνου [Κώστα Σκαρβέλη]
TTITLE5=Ιακωβίδης Αγάθωνας - Μη θες να τυραννιέμαι [Κώστα Σκαρβέλη]
TTITLE6=Παπάζογλου Σοφία - Γλυκό φιλί [Κώστα Σκαρβέλη]
TTITLE7=Ιακωβίδης Αγάθωνας - Παραπονιάρα [Κώστα Σκαρβέλη]
TTITLE8=Ιακωβίδης Αγάθωνας - Είσαι γκρινιάρα και γλωσσού [Κώστα Σκαρβέλη]
TTITLE9=Ιακωβίδης Αγάθωνας - Μάγισσα [Κώστα Σκαρβέλη]
TTITLE10=Ιακωβίδης Αγάθωνας-Γκολές Μπάμπης - Κανείς δεν βρέθηκε γιατρός [Κώστα
TTITLE10=Σκαρβέλη]
TTITLE11=Ιακωβίδης Αγάθωνας - Ερηνάκι [Κώστα Σκαρβέλη]
EXTD=
EXTT0=
EXTT1=
EXTT2=
EXTT3=
EXTT4=
EXTT5=
EXTT6=
EXTT7=
EXTT8=
EXTT9=
EXTT10=
EXTT11=
PLAYORDER=
